<svg xmlns="http://www.w3.org/2000/svg" xmlns:xlink="http://www.w3.org/1999/xlink" width="500" zoomAndPan="magnify" viewBox="0 0 375 374.999991" height="500" preserveAspectRatio="xMidYMid meet" version="1.0"><defs><clipPath id="eec7e1c19c"><path d="M 6.617188 6.617188 L 370.367188 6.617188 L 370.367188 370.367188 L 6.617188 370.367188 Z M 6.617188 6.617188 " clip-rule="nonzero"/></clipPath></defs><g clip-path="url(#eec7e1c19c)"><path fill="#1a2a73" d="M 188.417969 6.617188 C 87.996094 6.617188 6.617188 87.996094 6.617188 188.417969 C 6.617188 288.839844 87.996094 370.214844 188.417969 370.214844 C 288.839844 370.214844 370.214844 288.839844 370.214844 188.417969 C 370.058594 87.996094 288.679688 6.617188 188.417969 6.617188 Z M 286.320312 118.214844 L 250.90625 284.273438 C 249.171875 292.617188 239.414062 296.238281 232.644531 291.199219 L 148.59375 228.554688 L 241.460938 144.660156 C 241.460938 144.660156 247.757812 139.464844 246.027344 137.890625 C 244.136719 136 237.210938 140.09375 233.75 142.457031 C 230.128906 145.132812 119.945312 214.703125 119.945312 214.703125 L 64.070312 197.386719 C 57.773438 195.5 57.773438 186.84375 66.902344 183.066406 L 272.152344 104.050781 C 281.125 99.640625 288.210938 109.714844 286.320312 118.214844 Z M 286.320312 118.214844 " fill-opacity="1" fill-rule="nonzero"/></g></svg>