<svg xmlns="http://www.w3.org/2000/svg" xmlns:xlink="http://www.w3.org/1999/xlink" width="500" zoomAndPan="magnify" viewBox="0 0 375 374.999991" height="500" preserveAspectRatio="xMidYMid meet" version="1.0"><defs><clipPath id="6cf57cdf88"><path d="M 8.457031 8.457031 L 366.207031 8.457031 L 366.207031 366.207031 L 8.457031 366.207031 Z M 8.457031 8.457031 " clip-rule="nonzero"/></clipPath></defs><g clip-path="url(#6cf57cdf88)"><path fill="#1a2a73" d="M 321.457031 254.386719 L 321.457031 321.457031 L 53.171875 321.457031 L 53.171875 254.386719 L 8.457031 254.386719 L 8.457031 321.457031 C 8.457031 346.050781 28.578125 366.171875 53.171875 366.171875 L 321.457031 366.171875 C 346.050781 366.171875 366.171875 346.050781 366.171875 321.457031 L 366.171875 254.386719 Z M 75.527344 120.242188 L 107.050781 151.765625 L 164.957031 94.082031 L 164.957031 276.742188 L 209.671875 276.742188 L 209.671875 94.082031 L 267.574219 151.765625 L 299.097656 120.242188 L 187.3125 8.457031 Z M 75.527344 120.242188 " fill-opacity="1" fill-rule="nonzero"/></g></svg>